<?xml version="1.0" encoding="UTF-8"?>
<svg id="Ebene_1" data-name="Ebene 1" xmlns="http://www.w3.org/2000/svg" viewBox="0 0 484.82 344.57">
  <path d="M115.78,172.8c0-8.96-3.42-10.25-8.13-10.25-5.89,0-8.13,1.41-9.78,7.54v38.3c-4.83.59-15.56.59-20.39,0v-72.58c4.83-.59,15.56-.59,20.39,0v9.54l-.94,10.13h.83c2-7.54,9.07-10.13,18.62-10.13,11.43,0,19.8,4.48,19.8,17.56v45.49c-4.83.59-15.67.59-20.39,0v-35.59Z"/>
  <path d="M185.43,199.2h-.83c-1.77,7.19-8.96,10.02-18.15,10.02-11.08,0-19.56-4.95-19.56-17.68,0-16.85,9.07-20.39,21.92-20.39,6.01,0,10.25.35,15.67,1.06v-2.12c0-5.54-3.53-8.72-15.2-8.72-4.48,0-10.25.47-17.32,1.65-.59-4.83-.59-10.72,0-15.56,8.84-1.65,16.03-2.12,23.69-2.12,19.21,0,29.23,4.95,29.23,20.74v42.31c-4.83.59-13.67.59-18.38,0l-1.06-9.19ZM184.49,183.76c-3.06-.71-6.36-1.06-8.48-1.06-5.54,0-8.72.71-8.72,6.13s3.18,5.77,7.19,5.77c4.71,0,8.01-1.41,10.02-5.18v-5.66Z"/>
  <path d="M260.03,172.68l-7.66,35.71c-6.36.59-18.85.59-25.22,0l-15.32-61.28c4.71-.59,15.56-.59,20.27,0l9.07,42.89,8.6-42.89c5.07-.59,15.79-.59,20.74,0l8.48,42.89,9.19-42.89c4.83-.59,15.44-.59,20.15,0l-15.32,61.28c-6.36.59-18.85.59-25.34,0l-7.66-35.71Z"/>
  <path d="M341.81,182.82l-4.48.71v24.86c-4.83.59-15.56.59-20.39,0v-72.58c4.83-.59,15.56-.59,20.39,0v30.4l5.18-.83,13.91-18.27c4.6-.59,17.2-.59,21.8,0l-19.44,26.4,19.8,34.88c-4.6.59-17.44.59-22.15,0l-14.61-25.57Z"/>
  <path d="M386.95,147.11c4.83-.59,15.56-.59,20.39,0v61.28c-4.83.59-15.56.59-20.39,0v-61.28Z"/>
</svg>