<?xml version="1.0" encoding="utf-8"?>
<svg version="1.1"
	 id="svg2" xmlns:cc="http://creativecommons.org/ns#" xmlns:dc="http://purl.org/dc/elements/1.1/" xmlns:rdf="http://www.w3.org/1999/02/22-rdf-syntax-ns#" xmlns:svg="http://www.w3.org/2000/svg"
	 xmlns="http://www.w3.org/2000/svg" xmlns:xlink="http://www.w3.org/1999/xlink" x="0px" y="0px" viewBox="0 0 100 45"
	 style="enable-background:new 0 0 100 45;" xml:space="preserve">
<path id="path24" class="st1" d="M12.6,23.9h10.9v13.5h4.6V7.9h-4.6v11.8H12.6V7.9H7.9v29.5h4.6V23.9z M37.8,7.9l-8.3,29.5h5l3.1-11
	h7.2l-1-4.2h-5l4-14.3H37.8z M43.2,7.9l7.2,29.5h5l5.7-23.9l5.7,23.9h5l7.2-29.5h-5l-4.7,23.6L63.7,7.9h-5L53,31.6L48.3,7.9H43.2z
	 M78.6,22.2l9.3,15.2h5.5l-9.3-15.2l9-14.3h-5.5L78.6,22.2"/>
</svg>
