 <svg class="primary-menu__logo is-international" viewBox="0 0 529 155" preserveAspectRatio="xMidYMid meet" version="1.1" xmlns="http://www.w3.org/2000/svg" xmlns:xlink="http://www.w3.org/1999/xlink">
  <g stroke="none" stroke-width="1" fill="none" fill-rule="evenodd">
	<g class="logo-simple">
	  <polygon class="logo-background-color" fill="#3B3D40" points="0 78 175 78 175 0 0 0"></polygon>
	  <path d="M20.9155181,41.6974087 L39.6124586,41.6974087 L39.6124586,65 L47.5245486,65 L47.5245486,14 L39.6124586,14 L39.6124586,34.3750255 L20.9155181,34.3750255 L20.9155181,14 L13,14 L13,65 L20.9155181,65 L20.9155181,41.6974087 Z M63.9932142,14 L49.7528235,65 L58.3848177,65 L63.6812557,46.0193838 L75.9779051,46.0193838 L74.2364226,38.7351561 L65.7106999,38.7351561 L72.6252084,14 L63.9932142,14 Z M73.3416845,14 L85.641762,65 L94.2737561,65 L103.995891,23.6706795 L113.694029,65 L122.322595,65 L134.622673,14 L125.990678,14 L117.900326,54.8853295 L108.298176,14 L99.6661814,14 L90.0811712,54.8853295 L81.9702505,14 L73.3416845,14 Z M133.82735,38.7386248 L149.65153,65 L159,65 L143.179248,38.7455621 L158.646904,14 L149.291578,14 L133.82735,38.7386248 Z" class="logo-foreground-color" fill="#FFFFFF"></path>
	</g>
	  <g class="logo-extended">
		<path d="M181.270582,52 L335.239773,52 L335.239773,84.4989224 L181.270582,84.4989224 L181.270582,52 Z M41,84.4989224 L529,84.4989224 L529,116.997845 L41,116.997845 L41,84.4989224 Z M116.030865,156 L116.030865,123.501078 L485.294582,123.501078 L485.294582,156 L116.030865,156 Z" class="logo-background-color" fill="#3B3D40"></path>
		<g transform="translate(49.000000, 59.000000)" class="logo-foreground-color" fill="#FFFFFF">
		  <path d="M151.329618,16.7780128 L151.329618,0.887985882 L148.070406,0.887985882 L148.070406,7.06037244 L143.478508,7.06037244 L143.478508,0.887985882 L140.288347,0.887985882 L140.288347,16.7780128 L143.478508,16.7780128 L143.478508,9.68750521 L148.070406,9.68750521 L148.070406,16.7780128 L151.329618,16.7780128 Z M168.088318,8.75562958 C168.088318,3.7661405 165.474734,0.678227899 161.228092,0.678227899 C160.030055,0.678227899 158.859639,0.953320336 157.920545,1.45880269 C155.624596,2.71047328 154.316077,5.45795899 154.316077,8.88973714 C154.316077,11.2245842 154.937537,13.2361976 156.152836,14.7904699 C157.368136,16.3653741 158.928691,17.025596 161.342026,17.025596 C162.674712,17.025596 163.568924,16.8227153 164.532187,16.2931624 C166.848851,15.0414918 168.088318,12.3455859 168.088318,8.75562958 L168.088318,8.75562958 Z M164.394085,8.84159597 C164.394085,12.8923321 163.45499,14.5807119 161.228092,14.5807119 C160.46853,14.5807119 159.822902,14.4019018 159.318829,14.0374044 C158.355566,13.3496733 157.896377,11.6337842 157.896377,8.88973714 C157.896377,6.96409008 158.148413,5.57143462 158.700822,4.53983798 C159.160012,3.69392874 160.099107,3.15062118 161.179756,3.15062118 C162.881866,3.15062118 163.731194,4.3610279 163.983231,5.16223462 C164.259435,6.05284639 164.394085,7.21855059 164.394085,8.84159597 L164.394085,8.84159597 Z M181.957231,15.5641674 L180.48299,13.5559926 C179.547347,14.3056195 178.698019,14.5807119 177.752019,14.5807119 C176.377902,14.5807119 175.32142,13.9686313 174.679245,12.8029271 C174.195888,11.9329472 174.00945,10.7156632 174.00945,8.5458716 C174.00945,6.68899765 174.285654,5.36855395 174.910566,4.4538716 C175.483691,3.60796235 176.540172,3.08184807 177.617369,3.08184807 C178.515034,3.08184807 179.364362,3.37757244 180.165355,3.96902118 L181.611975,1.80266824 C180.741931,1.04616403 179.157209,0.540681681 177.572486,0.540681681 C174.99688,0.540681681 172.704384,1.91614387 171.468369,4.22348168 C170.732975,5.59550521 170.38772,7.17384807 170.38772,9.16482958 C170.38772,11.4996766 171.029895,13.4150077 172.314245,14.8558044 C173.622764,16.3447422 175.32142,17.0531052 177.527603,17.0531052 C179.336742,17.0531052 180.693596,16.5923254 181.957231,15.5641674 L181.957231,15.5641674 Z M195.801975,16.7780128 L195.801975,0.887985882 L192.542764,0.887985882 L192.542764,7.06037244 L187.947413,7.06037244 L187.947413,0.887985882 L184.760705,0.887985882 L184.760705,16.7780128 L187.947413,16.7780128 L187.947413,9.68750521 L192.542764,9.68750521 L192.542764,16.7780128 L195.801975,16.7780128 Z M210.589267,11.7713304 C210.589267,9.41241277 209.163362,7.74810353 206.549778,7.03630185 L204.6198,6.51018756 C203.287114,6.14225143 202.852092,5.73305143 202.852092,4.91121277 C202.852092,3.83147496 203.767019,3.08184807 205.075537,3.08184807 C206.273574,3.08184807 207.354223,3.4188363 208.797391,4.29225479 L210.313063,2.00554891 C208.911326,1.00146151 206.936464,0.403135462 204.985771,0.403135462 C201.609172,0.403135462 199.271793,2.41474891 199.271793,5.32041277 C199.271793,6.21446319 199.499661,7.03630185 199.938136,7.74810353 C200.507807,8.70404975 201.495238,9.32644639 203.079961,9.75971697 L204.847669,10.2411287 C206.273574,10.6296968 206.936464,11.2658481 206.936464,12.2940061 C206.936464,13.7141708 205.973201,14.470675 204.136442,14.470675 C202.527552,14.470675 201.243201,13.9686313 199.751698,13.1914951 L198.560566,15.6810817 C200.166004,16.5923254 202.182296,17.1218783 203.99834,17.1218783 C207.968778,17.1218783 210.589267,14.9933506 210.589267,11.7713304 L210.589267,11.7713304 Z M224.219953,15.5641674 L222.752618,13.5559926 C221.813523,14.3056195 220.964194,14.5807119 220.021647,14.5807119 C218.644077,14.5807119 217.584143,13.9686313 216.94542,12.8029271 C216.462063,11.9329472 216.279077,10.7156632 216.279077,8.5458716 C216.279077,6.68899765 216.555282,5.36855395 217.173289,4.4538716 C217.746413,3.60796235 218.806347,3.08184807 219.880092,3.08184807 C220.781209,3.08184807 221.627085,3.37757244 222.43153,3.96902118 L223.87815,1.80266824 C223.008107,1.04616403 221.423384,0.540681681 219.838661,0.540681681 C217.266508,0.540681681 214.974012,1.91614387 213.734545,4.22348168 C212.99915,5.59550521 212.657347,7.17384807 212.657347,9.16482958 C212.657347,11.4996766 213.29607,13.4150077 214.58042,14.8558044 C215.892391,16.3447422 217.584143,17.0531052 219.793778,17.0531052 C221.602917,17.0531052 222.959771,16.5923254 224.219953,15.5641674 L224.219953,15.5641674 Z M237.608961,16.7780128 L237.608961,0.887985882 L234.353201,0.887985882 L234.353201,7.06037244 L229.757851,7.06037244 L229.757851,0.887985882 L226.571143,0.887985882 L226.571143,16.7780128 L229.757851,16.7780128 L229.757851,9.68750521 L234.353201,9.68750521 L234.353201,16.7780128 L237.608961,16.7780128 Z M252.71734,11.585643 L252.71734,0.887985882 L249.458128,0.887985882 L249.458128,11.0629674 C249.458128,11.9088766 249.458128,12.1358279 249.413245,12.4796934 C249.275143,13.6488363 248.377479,14.3331287 246.979194,14.3331287 C245.91926,14.3331287 245.16315,13.9445607 244.790274,13.2361976 C244.610742,12.8923321 244.520975,12.3215153 244.520975,11.3380598 L244.520975,0.887985882 L241.237596,0.887985882 L241.237596,11.9570178 C241.237596,13.4872195 241.399866,14.1268094 241.928107,14.9520867 C242.822318,16.3447422 244.610742,17.0737371 247.048245,17.0737371 C250.490442,17.0737371 252.050997,15.3406548 252.465304,14.0821069 C252.68972,13.3943758 252.71734,13.0986514 252.71734,11.585643 L252.71734,11.585643 Z M265.33988,14.1268094 L259.625902,14.1268094 L259.625902,0.887985882 L256.345975,0.887985882 L256.345975,16.7780128 L264.766756,16.7780128 L265.33988,14.1268094 Z M276.823077,16.7780128 L276.823077,14.0374044 L270.784559,14.0374044 L270.784559,9.78034891 L275.307406,9.78034891 L275.307406,7.17728672 L270.784559,7.17728672 L270.784559,3.49104807 L276.20507,3.49104807 L276.615924,0.887985882 L267.525347,0.887985882 L267.525347,16.7780128 L276.823077,16.7780128 Z"></path>
		  <path d="M86.4578401,88.0799092 L86.4578401,72.1898824 L83.1986285,72.1898824 L83.1986285,78.3622689 L78.6067307,78.3622689 L78.6067307,72.1898824 L75.4165701,72.1898824 L75.4165701,88.0799092 L78.6067307,88.0799092 L78.6067307,80.9894017 L83.1986285,80.9894017 L83.1986285,88.0799092 L86.4578401,88.0799092 Z M92.9797161,88.0799092 L92.9797161,76.096195 L89.9034898,76.5776067 L89.9034898,88.0799092 L92.9797161,88.0799092 Z M93.3456869,73.1492672 C93.3456869,72.0970387 92.5205263,71.2476908 91.4882124,71.2476908 C90.4317307,71.2476908 89.5582343,72.0970387 89.5582343,73.1492672 C89.5582343,74.1980571 90.4075628,75.047405 91.4433292,75.047405 C92.4963584,75.047405 93.3456869,74.1980571 93.3456869,73.1492672 L93.3456869,73.1492672 Z M101.151913,88.0352067 L100.623672,86.205842 C100.464855,86.2505445 100.395804,86.2505445 100.278417,86.2505445 C100.02638,86.2505445 99.7743438,86.1370689 99.6604095,85.9307496 C99.4774241,85.6109546 99.4532562,85.3358622 99.4532562,83.3242487 L99.4532562,74.2014958 C99.4532562,72.5509412 99.408373,71.8013143 99.2909861,71.1617244 L96.1491613,71.8700874 C96.2630956,72.922316 96.3114314,73.8576303 96.3114314,75.3912706 L96.3114314,84.1254555 C96.3114314,85.7932034 96.3563146,86.1542622 96.5841832,86.7525882 C96.9536066,87.732605 98.0100883,88.3550017 99.315154,88.3550017 C99.9814971,88.3550017 100.623672,88.2415261 101.151913,88.0352067 L101.151913,88.0352067 Z M112.814643,88.0799092 C112.60749,87.6225681 112.379621,86.6838151 112.379621,83.8022218 L112.379621,71.6396975 L109.327563,71.1617244 L109.327563,75.1849513 C109.327563,75.8726824 109.372446,76.6704504 109.420782,76.9214723 C108.844205,76.4641311 108.181315,76.2578118 107.328534,76.2578118 C104.342074,76.2578118 102.301614,78.7714689 102.301614,82.4267597 C102.301614,86.0682958 104.183256,88.3756336 107.166264,88.3756336 C108.226198,88.3756336 109.120409,88.0558387 109.879972,87.3956168 C109.924855,87.7154118 109.969738,87.8976605 110.062957,88.0799092 L112.814643,88.0799092 Z M109.372446,85.0401378 C109.075526,85.4080739 108.433351,85.796642 107.856774,85.796642 C106.247884,85.796642 105.719643,84.9713647 105.719643,82.4577076 C105.719643,79.8443294 106.316935,78.7026958 107.697957,78.7026958 C108.250366,78.7026958 108.799322,78.9571563 109.372446,79.4592 L109.372446,85.0401378 Z M125.25765,83.1867025 L125.25765,82.4783395 C125.25765,80.0334555 124.777745,78.4516739 123.697096,77.3581815 C122.940986,76.5810454 121.653183,76.1202655 120.299782,76.1202655 C118.739227,76.1202655 117.568811,76.6257479 116.602096,77.6951697 C115.573234,78.8368034 115.138212,80.2397748 115.138212,82.3407933 C115.138212,86.0201546 117.316774,88.3997042 120.68992,88.3997042 C122.343694,88.3997042 123.766147,87.8701513 125.123001,86.7800975 L123.928417,84.9507328 C122.985869,85.7244303 121.998439,86.116437 120.941957,86.116437 C119.357234,86.116437 118.463023,85.088279 118.463023,83.2795462 L118.463023,83.1867025 L125.25765,83.1867025 Z M122.06749,80.9481378 L118.507906,80.9481378 L118.507906,80.9034353 C118.507906,79.2735126 119.174249,78.3622689 120.344665,78.3622689 C120.966125,78.3622689 121.401147,78.5892202 121.701519,79.0465613 C121.977723,79.4832706 122.06749,79.9406118 122.06749,80.8105916 L122.06749,80.9481378 Z M136.761563,84.3764773 C136.761563,83.5993412 136.554409,82.9356807 136.119388,82.3889345 C135.705081,81.8593815 135.225176,81.4226723 133.778555,81.0581748 L132.35265,80.6936773 C131.275453,80.4151462 130.885315,80.0987899 130.885315,79.5039025 C130.885315,78.8196101 131.482607,78.3622689 132.380271,78.3622689 C133.250315,78.3622689 134.099643,78.6132908 135.270059,79.2081782 L136.281658,77.1518622 C135.201008,76.6257479 133.964993,76.0549311 132.079899,76.0549311 C129.345475,76.0549311 127.536336,77.5851328 127.536336,79.8718387 C127.536336,80.6249042 127.788373,81.4742521 128.199227,81.9762958 C128.613534,82.4783395 129.576796,83.0285244 130.357074,83.1660706 L131.734643,83.4170924 C132.977563,83.6474824 133.550687,84.0566824 133.550687,84.8578891 C133.550687,85.6109546 132.860176,86.1852101 131.98668,86.1852101 C130.653993,86.1852101 129.024388,85.4287059 128.085293,84.8578891 L126.983928,87.0998924 C128.706753,87.9870655 130.288023,88.4409681 131.734643,88.4409681 C134.745271,88.4409681 136.761563,86.8007294 136.761563,84.3764773 L136.761563,84.3764773 Z M148.931818,88.0799092 L148.931818,79.8924706 C148.931818,78.7714689 148.862767,78.3829008 148.631446,77.722679 C148.265475,76.6910824 147.074344,76.0549311 145.579388,76.0549311 C144.388256,76.0549311 143.052118,76.5535361 142.251125,77.313479 C142.251125,77.1759328 142.296008,76.6910824 142.296008,76.3300235 L142.296008,73.9951765 C142.296008,72.8741748 142.226957,71.7772437 142.088855,71.1376538 L138.94703,71.8700874 C139.08168,72.3480605 139.174899,73.4484303 139.174899,74.5419227 L139.174899,88.0799092 L142.296008,88.0799092 L142.296008,79.6861513 C142.983066,79.0706319 143.970497,78.6132908 144.730059,78.6132908 C145.603555,78.6132908 145.924643,79.0465613 145.924643,80.2122655 L145.924643,88.0799092 L148.931818,88.0799092 Z M161.350658,83.1867025 L161.350658,82.4783395 C161.350658,80.0334555 160.870753,78.4516739 159.790103,77.3581815 C159.033993,76.5810454 157.746191,76.1202655 156.392789,76.1202655 C154.832234,76.1202655 153.661818,76.6257479 152.698555,77.6951697 C151.666242,78.8368034 151.227767,80.2397748 151.227767,82.3407933 C151.227767,86.0201546 153.406329,88.3997042 156.782928,88.3997042 C158.436701,88.3997042 159.859154,87.8701513 161.212555,86.7800975 L160.021424,84.9507328 C159.078877,85.7244303 158.091446,86.116437 157.034964,86.116437 C155.450242,86.116437 154.55603,85.088279 154.55603,83.2795462 L154.55603,83.1867025 L161.350658,83.1867025 Z M158.160497,80.9481378 L154.600913,80.9481378 L154.600913,80.9034353 C154.600913,79.2735126 155.267256,78.3622689 156.437672,78.3622689 C157.059132,78.3622689 157.494154,78.5892202 157.794526,79.0465613 C158.067278,79.4832706 158.160497,79.9406118 158.160497,80.8105916 L158.160497,80.9481378 Z M167.299409,88.0799092 L167.299409,76.096195 L164.223183,76.5776067 L164.223183,88.0799092 L167.299409,88.0799092 Z M167.66538,73.1492672 C167.66538,72.0970387 166.84022,71.2476908 165.804453,71.2476908 C164.751424,71.2476908 163.877928,72.0970387 163.877928,73.1492672 C163.877928,74.1980571 164.730709,75.047405 165.75957,75.047405 C166.816052,75.047405 167.66538,74.1980571 167.66538,73.1492672 L167.66538,73.1492672 Z M185.736052,88.0799092 L185.736052,79.7549244 C185.736052,78.1559496 185.528899,77.4716571 184.859103,76.9008403 C184.334315,76.4434992 183.464271,76.1684067 182.545891,76.1684067 C181.258088,76.1684067 180.294826,76.6016773 179.214176,77.6951697 C179.076074,77.4957277 178.917256,77.2894084 178.754986,77.1243529 C178.133526,76.4882017 177.332534,76.1684067 176.369271,76.1684067 C175.288621,76.1684067 174.301191,76.5810454 173.493293,77.3581815 C173.382811,76.7632941 173.289592,76.4882017 173.082439,76.1684067 L170.306585,76.9214723 C170.631125,77.4957277 170.745059,78.2247227 170.745059,79.9165412 L170.745059,88.0799092 L173.748782,88.0799092 L173.748782,79.5520437 C174.415125,78.9571563 175.195402,78.6579933 175.771979,78.6579933 C176.621307,78.6579933 176.828461,78.9984202 176.828461,80.4667261 L176.828461,88.0799092 L179.742417,88.0799092 L179.742417,79.6655193 C180.40876,79.0706319 181.213205,78.6820639 181.786329,78.6820639 C182.590774,78.6820639 182.753045,78.9571563 182.753045,80.3498118 L182.753045,88.0799092 L185.736052,88.0799092 Z M196.659935,70.6115395 L194.640191,70.6115395 L188.491191,91.5976538 L190.510935,91.5976538 L196.659935,70.6115395 Z M210.463249,88.0799092 L210.463249,72.1898824 L207.204037,72.1898824 L207.204037,78.3622689 L202.608687,78.3622689 L202.608687,72.1898824 L199.421979,72.1898824 L199.421979,88.0799092 L202.608687,88.0799092 L202.608687,80.9894017 L207.204037,80.9894017 L207.204037,88.0799092 L210.463249,88.0799092 Z M223.731417,82.1826151 C223.731417,80.2776 223.320563,78.9984202 222.378015,77.9049277 C221.369869,76.7185916 220.061351,76.1443361 218.379957,76.1443361 C215.210512,76.1443361 213.104453,78.5892202 213.104453,82.2754588 C213.104453,85.9548202 215.193249,88.3309311 218.379957,88.3309311 C220.199453,88.3309311 221.369869,87.7154118 222.260628,86.7113244 C223.268774,85.5662521 223.731417,84.1942286 223.731417,82.1826151 L223.731417,82.1826151 Z M220.382439,82.1551059 C220.382439,84.9266622 219.809315,86.116437 218.476628,86.116437 C217.879336,86.116437 217.188826,85.796642 216.912621,85.1501748 C216.660585,84.5621647 216.522482,83.5546387 216.522482,82.2066857 C216.522482,81.0375429 216.639869,80.2122655 216.84357,79.5967462 C217.099059,78.8643126 217.692899,78.4069714 218.428293,78.4069714 C218.980701,78.4069714 219.464059,78.6373613 219.764431,79.0259294 C220.175285,79.5520437 220.382439,80.576763 220.382439,82.1551059 L220.382439,82.1551059 Z M230.643431,88.0352067 L230.115191,86.205842 C229.956373,86.2505445 229.883869,86.2505445 229.769935,86.2505445 C229.517899,86.2505445 229.265862,86.1370689 229.151928,85.9307496 C228.968942,85.6109546 228.944774,85.3358622 228.944774,83.3242487 L228.944774,74.2014958 C228.944774,72.5509412 228.899891,71.8013143 228.782504,71.1617244 L225.64068,71.8700874 C225.754614,72.922316 225.80295,73.8576303 225.80295,75.3912706 L225.80295,84.1254555 C225.80295,85.7932034 225.847833,86.1542622 226.075701,86.7525882 C226.445125,87.732605 227.498154,88.3550017 228.806672,88.3550017 C229.473015,88.3550017 230.115191,88.2415261 230.643431,88.0352067 L230.643431,88.0352067 Z M241.757205,85.9548202 L236.357409,85.9548202 L241.550052,78.4757445 L241.550052,76.3747261 L232.825446,76.3747261 L232.825446,78.5204471 L237.897249,78.5204471 L232.366256,86.1852101 L232.366256,88.0799092 L241.021811,88.0799092 L241.757205,85.9548202 Z M259.272015,88.0799092 L259.272015,79.7549244 C259.272015,78.1559496 259.068315,77.4716571 258.401972,76.9008403 C257.873731,76.4434992 257.000234,76.1684067 256.085307,76.1684067 C254.797504,76.1684067 253.834242,76.6016773 252.753592,77.6951697 C252.612037,77.4957277 252.45322,77.2894084 252.294402,77.1243529 C251.672942,76.4882017 250.87195,76.1684067 249.908687,76.1684067 C248.828037,76.1684067 247.840607,76.5810454 247.036161,77.3581815 C246.922227,76.7632941 246.829008,76.4882017 246.621855,76.1684067 L243.842548,76.9214723 C244.170541,77.4957277 244.284475,78.2247227 244.284475,79.9165412 L244.284475,88.0799092 L247.288198,88.0799092 L247.288198,79.5520437 C247.954541,78.9571563 248.731366,78.6579933 249.30449,78.6579933 C250.160723,78.6579933 250.367877,78.9984202 250.367877,80.4667261 L250.367877,88.0799092 L253.27838,88.0799092 L253.27838,79.6655193 C253.948176,79.0706319 254.752621,78.6820639 255.325745,78.6820639 C256.130191,78.6820639 256.292461,78.9571563 256.292461,80.3498118 L256.292461,88.0799092 L259.272015,88.0799092 Z M265.793891,88.0799092 L265.793891,76.096195 L262.721118,76.5776067 L262.721118,88.0799092 L265.793891,88.0799092 Z M266.159862,73.1492672 C266.159862,72.0970387 265.334701,71.2476908 264.302388,71.2476908 C263.245906,71.2476908 262.375862,72.0970387 262.375862,73.1492672 C262.375862,74.1980571 263.221738,75.047405 264.257504,75.047405 C265.310534,75.047405 266.159862,74.1980571 266.159862,73.1492672 L266.159862,73.1492672 Z M278.50965,88.0799092 L278.50965,79.5279731 C278.50965,78.7955395 278.444052,78.2934958 278.281782,77.8533479 C277.915811,76.8526992 276.769563,76.1684067 275.461045,76.1684067 C274.767081,76.1684067 273.969541,76.3506555 273.348081,76.6704504 C272.844008,76.9455429 272.450417,77.2206353 271.991227,77.5404303 C271.991227,77.0590185 271.832409,76.5535361 271.556205,76.075563 L268.828687,76.8526992 C269.101439,77.6332739 269.239541,78.5926588 269.239541,79.6001849 L269.239541,88.0799092 L272.312315,88.0799092 L272.312315,79.8030655 C273.026993,79.1634756 273.831439,78.750837 274.449446,78.750837 C275.257344,78.750837 275.485212,79.1359664 275.485212,80.4667261 L275.485212,88.0799092 L278.50965,88.0799092 Z M291.094212,88.0799092 C290.883607,87.6225681 290.655738,86.6838151 290.655738,83.8022218 L290.655738,71.6396975 L287.607132,71.1617244 L287.607132,75.1849513 C287.607132,75.8726824 287.652015,76.6704504 287.696899,76.9214723 C287.123774,76.4641311 286.457431,76.2578118 285.608103,76.2578118 C282.625096,76.2578118 280.581183,78.7714689 280.581183,82.4267597 C280.581183,86.0682958 282.462826,88.3756336 285.449285,88.3756336 C286.502315,88.3756336 287.399979,88.0558387 288.152636,87.3956168 C288.204424,87.7154118 288.249307,87.8976605 288.339074,88.0799092 L291.094212,88.0799092 Z M287.652015,85.0401378 C287.355096,85.4080739 286.706015,85.796642 286.132891,85.796642 C284.527453,85.796642 283.999212,84.9713647 283.999212,82.4577076 C283.999212,79.8443294 284.596504,78.7026958 285.977526,78.7026958 C286.526482,78.7026958 287.078891,78.9571563 287.652015,79.4592 L287.652015,85.0401378 Z M303.07803,83.1867025 L303.07803,82.4783395 C303.07803,80.0334555 302.594672,78.4516739 301.517475,77.3581815 C300.757913,76.5810454 299.473563,76.1202655 298.120161,76.1202655 C296.556154,76.1202655 295.385738,76.6257479 294.425928,77.6951697 C293.390161,78.8368034 292.955139,80.2397748 292.955139,82.3407933 C292.955139,86.0201546 295.137154,88.3997042 298.506847,88.3997042 C300.164074,88.3997042 301.586526,87.8701513 302.939928,86.7800975 L301.745344,84.9507328 C300.802796,85.7244303 299.818818,86.116437 298.762336,86.116437 C297.177614,86.116437 296.283402,85.088279 296.283402,83.2795462 L296.283402,83.1867025 L303.07803,83.1867025 Z M299.887869,80.9481378 L296.328285,80.9481378 L296.328285,80.9034353 C296.328285,79.2735126 296.994628,78.3622689 298.165045,78.3622689 C298.786504,78.3622689 299.221526,78.5892202 299.514993,79.0465613 C299.79465,79.4832706 299.887869,79.9406118 299.887869,80.8105916 L299.887869,80.9481378 Z M314.761475,88.0799092 L314.761475,79.5279731 C314.761475,78.7955395 314.695877,78.2934958 314.533607,77.8533479 C314.167636,76.8526992 313.021388,76.1684067 311.712869,76.1684067 C311.022358,76.1684067 310.221366,76.3506555 309.599906,76.6704504 C309.09238,76.9455429 308.702242,77.2206353 308.243052,77.5404303 C308.243052,77.0590185 308.084234,76.5535361 307.80803,76.075563 L305.077059,76.8526992 C305.353264,77.6332739 305.491366,78.5926588 305.491366,79.6001849 L305.491366,88.0799092 L308.564139,88.0799092 L308.564139,79.8030655 C309.278818,79.1634756 310.083264,78.750837 310.704723,78.750837 C311.505716,78.750837 311.737037,79.1359664 311.737037,80.4667261 L311.737037,88.0799092 L314.761475,88.0799092 Z M325.692264,70.6115395 L323.675972,70.6115395 L317.523519,91.5976538 L319.543264,91.5976538 L325.692264,70.6115395 Z M340.203351,86.8488706 L340.203351,79.2563193 L334.026731,79.2563193 L334.44449,81.8559429 L336.878541,81.8559429 L336.878541,85.4768471 C336.3503,85.7485008 335.773723,85.8619765 335.062497,85.8619765 C334.026731,85.8619765 333.156687,85.5456202 332.559395,84.9713647 C331.75495,84.1735966 331.364811,82.7052908 331.364811,80.4460941 C331.364811,78.0665445 331.641015,76.3506555 332.718212,75.3190588 C333.270621,74.7929445 334.075066,74.5212908 335.017614,74.5212908 C336.232913,74.5212908 337.313563,74.9098588 338.345877,75.7557681 L340.044534,73.7647866 C338.639344,72.5509412 336.899256,71.9388605 334.972731,71.9388605 C333.453607,71.9388605 332.259023,72.2827261 331.088607,73.0598622 C328.861709,74.538484 327.763796,76.9214723 327.763796,80.2810387 C327.763796,82.6605882 328.285132,84.3558454 329.462453,85.8413445 C330.743351,87.4850218 332.511059,88.262158 334.900227,88.262158 C336.785322,88.262158 338.577198,87.8048168 340.203351,86.8488706 L340.203351,86.8488706 Z M353.24365,82.1826151 C353.24365,80.2776 352.832796,78.9984202 351.890249,77.9049277 C350.882103,76.7185916 349.570132,76.1443361 347.895643,76.1443361 C344.726198,76.1443361 342.616687,78.5892202 342.616687,82.2754588 C342.616687,85.9548202 344.705482,88.3309311 347.895643,88.3309311 C349.711687,88.3309311 350.882103,87.7154118 351.776315,86.7113244 C352.784461,85.5662521 353.24365,84.1942286 353.24365,82.1826151 L353.24365,82.1826151 Z M349.894672,82.1551059 C349.894672,84.9266622 349.321548,86.116437 347.985409,86.116437 C347.39157,86.116437 346.697607,85.796642 346.424855,85.1501748 C346.172818,84.5621647 346.034716,83.5546387 346.034716,82.2066857 C346.034716,81.0375429 346.14865,80.2122655 346.355804,79.5967462 C346.60784,78.8643126 347.205132,78.4069714 347.940526,78.4069714 C348.492935,78.4069714 348.976293,78.6373613 349.276665,79.0259294 C349.687519,79.5520437 349.894672,80.576763 349.894672,82.1551059 L349.894672,82.1551059 Z M347.253468,73.5584672 C347.253468,72.602521 346.473191,71.8013143 345.530643,71.8013143 C344.56738,71.8013143 343.738767,72.602521 343.738767,73.5584672 C343.738767,74.5212908 344.53976,75.3190588 345.48576,75.3190588 C346.449023,75.3190588 347.253468,74.5212908 347.253468,73.5584672 L347.253468,73.5584672 Z M352.097402,73.5584672 C352.097402,72.602521 351.317125,71.8013143 350.374577,71.8013143 C349.411315,71.8013143 348.582701,72.602521 348.582701,73.5584672 C348.582701,74.5212908 349.387147,75.3190588 350.329694,75.3190588 C351.292957,75.3190588 352.097402,74.5212908 352.097402,73.5584672 L352.097402,73.5584672 Z M361.764555,87.8288874 L361.367512,86.0029613 C360.822008,86.1577008 360.545804,86.2299126 360.269599,86.2299126 C359.209665,86.2299126 358.940366,85.8413445 358.940366,84.3558454 L358.940366,78.4757445 L360.911774,78.4757445 L361.695504,76.3747261 L358.940366,76.3747261 C358.940366,75.1849513 359.005964,73.9057714 359.123351,72.8260336 L356.002242,73.6066084 C355.888307,74.4765882 355.888307,75.2296538 355.888307,76.3747261 L354.717891,76.3747261 L354.717891,78.4757445 L355.888307,78.4757445 L355.888307,84.8338185 C355.888307,85.9101176 355.90557,86.1370689 356.095461,86.6425513 C356.461431,87.6672706 357.697446,88.3550017 359.261453,88.3550017 C360.062446,88.3550017 360.866891,88.1933849 361.764555,87.8288874 L361.764555,87.8288874 Z M370.282008,87.8288874 L369.891869,86.0029613 C369.339461,86.1577008 369.063256,86.2299126 368.787052,86.2299126 C367.734023,86.2299126 367.457818,85.8413445 367.457818,84.3558454 L367.457818,78.4757445 L369.429227,78.4757445 L370.212957,76.3747261 L367.457818,76.3747261 C367.457818,75.1849513 367.526869,73.9057714 367.640804,72.8260336 L364.519694,73.6066084 C364.40576,74.4765882 364.40576,75.2296538 364.40576,76.3747261 L363.235344,76.3747261 L363.235344,78.4757445 L364.40576,78.4757445 L364.40576,84.8338185 C364.40576,85.9101176 364.429928,86.1370689 364.612913,86.6425513 C364.978884,87.6672706 366.218351,88.3550017 367.778906,88.3550017 C368.583351,88.3550017 369.384344,88.1933849 370.282008,87.8288874 L370.282008,87.8288874 Z M376.113373,88.0799092 L376.113373,76.096195 L373.037147,76.5776067 L373.037147,88.0799092 L376.113373,88.0799092 Z M376.475891,73.1492672 C376.475891,72.0970387 375.654183,71.2476908 374.621869,71.2476908 C373.565388,71.2476908 372.695344,72.0970387 372.695344,73.1492672 C372.695344,74.1980571 373.544672,75.047405 374.573534,75.047405 C375.630015,75.047405 376.475891,74.1980571 376.475891,73.1492672 L376.475891,73.1492672 Z M388.71865,88.0799092 L388.71865,79.5279731 C388.71865,78.7955395 388.649599,78.2934958 388.487329,77.8533479 C388.121358,76.8526992 386.971658,76.1684067 385.666592,76.1684067 C384.976081,76.1684067 384.171636,76.3506555 383.550176,76.6704504 C383.046103,76.9455429 382.655964,77.2206353 382.196774,77.5404303 C382.196774,77.0590185 382.034504,76.5535361 381.761753,76.075563 L379.030782,76.8526992 C379.306986,77.6332739 379.445088,78.5926588 379.445088,79.6001849 L379.445088,88.0799092 L382.514409,88.0799092 L382.514409,79.8030655 C383.229088,79.1634756 384.033534,78.750837 384.654993,78.750837 C385.459439,78.750837 385.683855,79.1359664 385.683855,80.4667261 L385.683855,88.0799092 L388.71865,88.0799092 Z M403.802862,77.6539059 L402.511607,75.7076269 C401.803833,76.3506555 400.926884,76.7185916 400.081008,76.7185916 C399.694322,76.7185916 399.280015,76.6257479 398.634388,76.4641311 C397.785059,76.2578118 397.187767,76.1684067 396.524877,76.1684067 C393.514249,76.1684067 391.567008,77.722679 391.567008,80.1228605 C391.567008,81.8593815 392.392169,82.9356807 394.090826,83.3689513 C392.160847,83.8675563 391.932979,84.579358 391.932979,85.3393008 C391.932979,86.1370689 392.278234,86.6631832 392.827191,86.8660639 C393.379599,87.0964538 394.273811,87.2099294 395.65138,87.234 L396.959899,87.2580706 C398.17865,87.2787025 399.121198,87.5950588 399.121198,88.6541647 C399.121198,89.1355765 398.820826,89.5688471 398.361636,89.8439395 C397.878278,90.1396639 397.211935,90.2325076 396.431658,90.2325076 C395.009205,90.2325076 394.228928,89.7270252 394.228928,88.7917109 C394.228928,88.471916 394.249643,88.3068605 394.363577,88.0352067 L391.522125,88.0352067 C391.404738,88.262158 391.24592,88.5819529 391.24592,89.2249815 C391.24592,90.0227496 391.567008,90.7104807 392.209183,91.3019294 C393.262212,92.2888235 394.985037,92.5604773 396.662979,92.5604773 C398.499738,92.5604773 400.267446,92.1512773 401.29976,91.0543462 C401.938482,90.3700538 402.238855,89.6135496 402.238855,88.6300941 C402.238855,87.5778655 401.917767,86.7766588 401.230709,86.1370689 C400.402096,85.3840034 399.463001,85.1089109 397.671125,85.088279 L396.017351,85.0642084 C395.696264,85.0642084 395.513278,84.9507328 395.513278,84.789116 C395.513278,84.469321 395.9483,84.1942286 396.728577,83.8262924 C396.959899,83.850363 397.049665,83.850363 397.187767,83.850363 C399.694322,83.850363 401.527628,82.3889345 401.527628,80.377321 C401.527628,79.6001849 401.29976,79.0018588 400.84057,78.4551126 C401.023555,78.4791832 401.344643,78.5238857 401.645015,78.5238857 C402.494344,78.5238857 403.136519,78.2694252 403.802862,77.6539059 L403.802862,77.6539059 Z M398.361636,80.1434924 C398.361636,81.2232303 397.695293,81.8181176 396.473088,81.8181176 C395.399344,81.8181176 394.66395,81.3367059 394.66395,80.1434924 C394.66395,79.0465613 395.330293,78.4069714 396.500709,78.4069714 C397.671125,78.4069714 398.361636,79.0465613 398.361636,80.1434924 L398.361636,80.1434924 Z M414.523045,83.1867025 L414.523045,82.4783395 C414.523045,80.0334555 414.039687,78.4516739 412.959037,77.3581815 C412.202928,76.5810454 410.915125,76.1202655 409.558271,76.1202655 C408.001169,76.1202655 406.8273,76.6257479 405.86749,77.6951697 C404.838628,78.8368034 404.400154,80.2397748 404.400154,82.3407933 C404.400154,86.0201546 406.578716,88.3997042 409.951862,88.3997042 C411.605636,88.3997042 413.028088,87.8701513 414.384942,86.7800975 L413.190358,84.9507328 C412.247811,85.7244303 411.26038,86.116437 410.203899,86.116437 C408.619176,86.116437 407.724964,85.088279 407.724964,83.2795462 L407.724964,83.1867025 L414.523045,83.1867025 Z M411.329431,80.9481378 L407.769847,80.9481378 L407.769847,80.9034353 C407.769847,79.2735126 408.436191,78.3622689 409.606607,78.3622689 C410.228066,78.3622689 410.663088,78.5892202 410.963461,79.0465613 C411.239665,79.4832706 411.329431,79.9406118 411.329431,80.8105916 L411.329431,80.9481378 Z M426.66568,88.0799092 L426.66568,79.5279731 C426.66568,78.7955395 426.596628,78.2934958 426.437811,77.8533479 C426.07184,76.8526992 424.925592,76.1684067 423.617074,76.1684067 C422.926563,76.1684067 422.122118,76.3506555 421.500658,76.6704504 C421.000037,76.9455429 420.606446,77.2206353 420.147256,77.5404303 C420.147256,77.0590185 419.988439,76.5535361 419.712234,76.075563 L416.981264,76.8526992 C417.257468,77.6332739 417.39557,78.5926588 417.39557,79.6001849 L417.39557,88.0799092 L420.468344,88.0799092 L420.468344,79.8030655 C421.183023,79.1634756 421.984015,78.750837 422.605475,78.750837 C423.40992,78.750837 423.641242,79.1359664 423.641242,80.4667261 L423.641242,88.0799092 L426.66568,88.0799092 Z"></path>
		  <path d="M8.68938978,33.2966259 L0.0372875912,33.2966259 L0.0372875912,49.1866528 L3.2481635,49.1866528 L3.2481635,42.1202158 L7.31182044,42.1202158 L7.31182044,39.5205923 L3.2481635,39.5205923 L3.2481635,35.8790561 L8.32341898,35.8790561 L8.68938978,33.2966259 Z M22.4202,43.9977217 L22.4202,33.2966259 L19.1609883,33.2966259 L19.1609883,43.4716074 C19.1609883,44.3175166 19.1609883,44.5479066 19.1161051,44.8917721 C18.9780029,46.0574763 18.0837912,46.7417687 16.6786015,46.7417687 C15.6221197,46.7417687 14.8660102,46.3532007 14.4965869,45.6448376 C14.3136015,45.3009721 14.223835,44.7301553 14.223835,43.7466998 L14.223835,33.2966259 L10.9404555,33.2966259 L10.9404555,44.3690965 C10.9404555,45.8958595 11.1027255,46.5388881 11.6309664,47.3607267 C12.5251781,48.7533822 14.3136015,49.4858158 16.7476526,49.4858158 C20.1933022,49.4858158 21.7538569,47.7492948 22.1681635,46.4907469 C22.3960321,45.8098931 22.4202,45.5072914 22.4202,43.9977217 L22.4202,43.9977217 Z M16.0122584,31.0064813 C16.0122584,30.0539738 15.231981,29.2493284 14.2928861,29.2493284 C13.3261708,29.2493284 12.5010102,30.0539738 12.5010102,31.0064813 C12.5010102,31.9693049 13.3054555,32.7705116 14.2445504,32.7705116 C15.2112657,32.7705116 16.0122584,31.9693049 16.0122584,31.0064813 L16.0122584,31.0064813 Z M20.8354774,31.0064813 C20.8354774,30.0539738 20.0552,29.2493284 19.1126526,29.2493284 C18.1493898,29.2493284 17.3207766,30.0539738 17.3207766,31.0064813 C17.3207766,31.9693049 18.1252219,32.7705116 19.0677693,32.7705116 C20.0310321,32.7705116 20.8354774,31.9693049 20.8354774,31.0064813 L20.8354774,31.0064813 Z M37.1591562,49.1866528 C36.5860321,48.1791267 34.1554336,44.0424242 33.3268204,43.0142662 C33.1196672,42.7391738 32.981565,42.6016276 32.6604774,42.3506057 C34.6318861,42.3024645 36.2166088,40.3389923 36.2166088,37.9594427 C36.2166088,35.1706931 34.3591343,33.2966259 31.5349445,33.2966259 L25.5896453,33.2966259 L25.5896453,49.1866528 L28.7314701,49.1866528 L28.7314701,42.556925 C28.9386234,42.577557 29.0767255,42.6256982 29.2389956,42.6910326 C29.8121197,42.9489318 30.2954774,43.7226292 31.8802,46.5801519 C32.5016599,47.7011536 32.7536964,48.1344242 33.3717036,49.1866528 L37.1591562,49.1866528 Z M32.8434628,38.0282158 C32.8434628,38.6918763 32.6155942,39.2626931 32.2254555,39.6271906 C31.7904336,40.0157587 31.1931416,40.1533049 29.8121197,40.1533049 L28.7314701,40.1533049 L28.7314701,35.8549855 L29.8811708,35.8549855 C30.6614482,35.8549855 31.3312438,35.9478292 31.6972146,36.0888141 C32.4533241,36.3604679 32.8434628,37.0447603 32.8434628,38.0282158 L32.8434628,38.0282158 Z M56.4692949,49.1866528 L51.4389226,33.2519234 L47.9725577,33.2519234 L42.7384847,49.1866528 L46.0909153,49.1866528 L47.2164482,45.4144477 L51.8981124,45.4144477 L53.0236453,49.1866528 L56.4692949,49.1866528 Z M51.117835,42.7632444 L47.9967255,42.7632444 C48.341981,41.7110158 48.5456818,40.9613889 48.846054,39.8163166 C49.1222584,38.7606494 49.5123971,37.1169721 49.6021635,36.749036 L50.2443387,39.5618561 C50.4998277,40.6622259 51.0039007,42.4193788 51.117835,42.7632444 L51.117835,42.7632444 Z M69.4370905,49.1866528 L69.4370905,33.2966259 L66.3850321,33.2966259 L66.4540832,39.7922461 C66.4782511,40.8857385 66.5921854,42.9214225 66.7095723,44.1558998 C66.3850321,43.0142662 65.7670248,41.3430797 64.9625796,39.6581385 L61.9070686,33.2966259 L58.3509372,33.2966259 L58.3509372,49.1866528 L61.4478788,49.1866528 L61.3546599,42.3953082 C61.3339445,41.0679872 61.3097766,39.1973587 61.1958423,37.8941082 C61.492762,38.8775637 62.4594774,41.1161284 63.3536891,43.1071099 L66.0881124,49.1866528 L69.4370905,49.1866528 Z M84.8665577,47.9556141 L84.8665577,40.3665015 L78.6899372,40.3665015 L79.1076964,42.9695637 L81.5382949,42.9695637 L81.5382949,46.5835906 C81.0135066,46.8552444 80.4369299,46.9755973 79.7257036,46.9755973 C78.6899372,46.9755973 77.8164409,46.6523637 77.2226015,46.0781082 C76.4181562,45.2769015 76.0280175,43.8154729 76.0280175,41.549399 C76.0280175,39.1732881 76.3042219,37.457399 77.381419,36.4258024 C77.9338277,35.8996881 78.7348204,35.6314729 79.6808204,35.6314729 C80.8961197,35.6314729 81.9767693,36.0166024 83.0090832,36.8625116 L84.7042876,34.8715301 C83.3060029,33.6611234 81.5624628,33.0490427 79.6324847,33.0490427 C78.1168131,33.0490427 76.9222292,33.3894696 75.7518131,34.1631671 C73.5283679,35.6521049 72.4235504,38.0282158 72.4235504,41.3912208 C72.4235504,43.7673318 72.9517912,45.4625889 74.1222073,46.9515267 C75.4065577,48.5917654 77.1742657,49.3689015 79.5668861,49.3689015 C81.4485285,49.3689015 83.2369518,48.9115603 84.8665577,47.9556141 L84.8665577,47.9556141 Z M97.6099372,49.1866528 L97.6099372,46.4460444 L91.571419,46.4460444 L91.571419,42.1889889 L96.0942657,42.1889889 L96.0942657,39.5859267 L91.571419,39.5859267 L91.571419,35.8996881 L96.9884774,35.8996881 L97.4027839,33.2966259 L88.3122073,33.2966259 L88.3122073,49.1866528 L97.6099372,49.1866528 Z M118.090492,33.2966259 L114.713893,33.2966259 L113.405375,39.3349049 C113.06012,40.8651066 112.580215,44.0424242 112.531879,44.5891704 C112.486996,44.3381486 112.14174,41.8244914 111.84482,40.4043267 L110.374032,33.2966259 L106.862784,33.2966259 L105.436879,39.7234729 C104.956974,41.8691939 104.680769,44.114636 104.611718,44.7748578 C104.566835,44.4550629 104.359682,42.3265351 103.76239,39.5618561 L102.38482,33.2966259 L98.9875066,33.2966259 L102.799127,49.324199 L106.448477,49.324199 L107.781164,42.8113855 C108.192018,40.7722629 108.468222,38.8122292 108.537273,38.37552 C108.582156,38.9910393 108.858361,40.9098091 109.296835,42.8526494 L110.719288,49.324199 L114.230536,49.324199 L118.090492,33.2966259 Z M131.35866,49.1866528 L126.33174,33.2519234 L122.865375,33.2519234 L117.631302,49.1866528 L120.98028,49.1866528 L122.105813,45.4144477 L126.79093,45.4144477 L127.916463,49.1866528 L131.35866,49.1866528 Z M126.010653,42.7632444 L122.886091,42.7632444 C123.231346,41.7110158 123.438499,40.9613889 123.735419,39.8163166 C124.011623,38.7606494 124.401762,37.1169721 124.494981,36.749036 L125.137156,39.5618561 C125.389193,40.6622259 125.896718,42.4193788 126.010653,42.7632444 L126.010653,42.7632444 Z M144.329908,49.1866528 L144.329908,33.2966259 L141.281302,33.2966259 L141.350353,39.7922461 C141.371069,40.8857385 141.488455,42.9214225 141.60239,44.1558998 C141.281302,43.0142662 140.659842,41.3430797 139.855397,39.6581385 L136.799886,33.2966259 L133.243755,33.2966259 L133.243755,49.1866528 L136.340696,49.1866528 L136.247477,42.3953082 C136.223309,41.0679872 136.202594,39.1973587 136.08866,37.8941082 C136.38558,38.8775637 137.352295,41.1161284 138.246507,43.1071099 L140.98093,49.1866528 L144.329908,49.1866528 Z M159.666156,41.2983771 C159.666156,38.4408545 158.958382,36.4051704 157.487594,34.9643738 C156.524331,34.0049889 155.353915,33.5063839 153.997061,33.3894696 C153.354886,33.3447671 152.139587,33.2966259 151.217755,33.2966259 L148.006879,33.2966259 L148.006879,49.1866528 L151.884098,49.1866528 C152.826645,49.1866528 153.582755,49.1419503 154.180047,49.0972477 C155.675003,48.9837721 157.097455,48.1172309 158.060718,46.8139805 C159.137915,45.3731839 159.666156,43.4716074 159.666156,41.2983771 L159.666156,41.2983771 Z M156.065142,41.5941015 C156.065142,44.9639839 155.098426,46.5835906 152.988915,46.5835906 L151.262638,46.5835906 L151.262638,35.810283 L152.733426,35.810283 C153.997061,35.810283 154.732455,36.2676242 155.260696,37.137604 C155.902872,38.1863939 156.065142,39.7441049 156.065142,41.5941015 L156.065142,41.5941015 Z M172.271434,33.2966259 L160.774426,33.2966259 L160.774426,35.9478292 L164.675813,35.9478292 L164.675813,49.1866528 L167.931572,49.1866528 L167.931572,35.9478292 L171.743193,35.9478292 L172.271434,33.2966259 Z M183.637244,49.1866528 L183.637244,46.4460444 L177.598726,46.4460444 L177.598726,42.1889889 L182.121572,42.1889889 L182.121572,39.5859267 L177.598726,39.5859267 L177.598726,35.8996881 L183.015784,35.8996881 L183.430091,33.2966259 L174.339514,33.2966259 L174.339514,49.1866528 L183.637244,49.1866528 Z M208.271222,33.2966259 L204.898076,33.2966259 L203.589558,39.3349049 C203.244302,40.8651066 202.760945,44.0424242 202.716061,44.5891704 C202.671178,44.3381486 202.325923,41.8244914 202.02555,40.4043267 L200.558215,33.2966259 L197.043514,33.2966259 L195.621061,39.7234729 C195.137704,41.8691939 194.864952,44.114636 194.795901,44.7748578 C194.747565,44.4550629 194.540412,42.3265351 193.946572,39.5618561 L192.569003,33.2966259 L189.168236,33.2966259 L192.979857,49.324199 L196.63266,49.324199 L197.961893,42.8113855 C198.3762,40.7722629 198.652404,38.8122292 198.721455,38.37552 C198.766339,38.9910393 199.042543,40.9098091 199.477565,42.8526494 L200.900018,49.324199 L204.414718,49.324199 L208.271222,33.2966259 Z M210.798492,49.1866528 L214.14747,49.1866528 L214.14747,33.2966259 L210.798492,33.2966259 L210.798492,49.1866528 Z M228.931309,44.1799704 C228.931309,41.8244914 227.512309,40.1533049 224.895273,39.4449418 L222.965295,38.9188276 C221.632609,38.5543301 221.194134,38.1416914 221.194134,37.3198528 C221.194134,36.2435536 222.112514,35.4939267 223.424485,35.4939267 C224.619069,35.4939267 225.696266,35.830915 227.142886,36.7008948 L228.658558,34.4141889 C227.260273,33.4101015 225.285412,32.8152141 223.334718,32.8152141 C219.95812,32.8152141 217.617288,34.8268276 217.617288,37.7290528 C217.617288,38.6231032 217.845156,39.4449418 218.283631,40.1533049 C218.856755,41.1161284 219.844185,41.7316477 221.425455,42.168357 L223.196616,42.6532074 C224.619069,43.0383368 225.285412,43.6813654 225.285412,44.7060847 C225.285412,46.1262494 224.318696,46.879315 222.481937,46.879315 C220.873047,46.879315 219.592149,46.3807099 218.097193,45.6001351 L216.906061,48.0931603 C218.511499,49.004404 220.531244,49.533957 222.347288,49.533957 C226.317726,49.533957 228.931309,47.4088679 228.931309,44.1799704 L228.931309,44.1799704 Z M242.341032,44.1799704 C242.341032,41.8244914 240.91858,40.1533049 238.301543,39.4449418 L236.375018,38.9188276 C235.038879,38.5543301 234.603857,38.1416914 234.603857,37.3198528 C234.603857,36.2435536 235.522236,35.4939267 236.834207,35.4939267 C238.028791,35.4939267 239.105988,35.830915 240.552609,36.7008948 L242.064828,34.4141889 C240.666543,33.4101015 238.691682,32.8152141 236.740988,32.8152141 C233.367842,32.8152141 231.023558,34.8268276 231.023558,37.7290528 C231.023558,38.6231032 231.254879,39.4449418 231.689901,40.1533049 C232.263025,41.1161284 233.250455,41.7316477 234.835178,42.168357 L236.602886,42.6532074 C238.028791,43.0383368 238.691682,43.6813654 238.691682,44.7060847 C238.691682,46.1262494 237.728419,46.879315 235.89166,46.879315 C234.282769,46.879315 232.998419,46.3807099 231.506915,45.6001351 L230.312331,48.0931603 C231.921222,49.004404 233.937514,49.533957 235.753558,49.533957 C239.727448,49.533957 242.341032,47.4088679 242.341032,44.1799704 L242.341032,44.1799704 Z M254.166032,49.1866528 L254.166032,46.4460444 L248.127514,46.4460444 L248.127514,42.1889889 L252.650361,42.1889889 L252.650361,39.5859267 L248.127514,39.5859267 L248.127514,35.8996881 L253.544572,35.8996881 L253.958879,33.2966259 L244.868302,33.2966259 L244.868302,49.1866528 L254.166032,49.1866528 Z M268.238645,49.1866528 L268.238645,33.2966259 L265.186587,33.2966259 L265.255638,39.7922461 C265.279806,40.8857385 265.39374,42.9214225 265.511127,44.1558998 C265.186587,43.0142662 264.56858,41.3430797 263.764134,39.6581385 L260.708623,33.2966259 L257.152492,33.2966259 L257.152492,49.1866528 L260.249434,49.1866528 L260.156215,42.3953082 C260.135499,41.0679872 260.111331,39.1973587 259.997397,37.8941082 C260.294317,38.8775637 261.261032,41.1161284 262.155244,43.1071099 L264.889667,49.1866528 L268.238645,49.1866528 Z M283.025937,44.1799704 C283.025937,41.8244914 281.603485,40.1533049 278.986448,39.4449418 L277.05647,38.9188276 C275.723784,38.5543301 275.288762,38.1416914 275.288762,37.3198528 C275.288762,36.2435536 276.207142,35.4939267 277.519112,35.4939267 C278.710244,35.4939267 279.790893,35.830915 281.234061,36.7008948 L282.749733,34.4141889 C281.347996,33.4101015 279.376587,32.8152141 277.425893,32.8152141 C274.049295,32.8152141 271.708463,34.8268276 271.708463,37.7290528 C271.708463,38.6231032 271.939784,39.4449418 272.374806,40.1533049 C272.94793,41.1161284 273.931908,41.7316477 275.516631,42.168357 L277.284339,42.6532074 C278.710244,43.0383368 279.376587,43.6813654 279.376587,44.7060847 C279.376587,46.1262494 278.413324,46.879315 276.573112,46.879315 C274.967674,46.879315 273.679872,46.3807099 272.19182,45.6001351 L270.997236,48.0931603 C272.602674,49.004404 274.622419,49.533957 276.43501,49.533957 C280.408901,49.533957 283.025937,47.4088679 283.025937,44.1799704 L283.025937,44.1799704 Z M296.663528,47.9796847 L295.19274,45.9680713 C294.253645,46.7211368 293.404317,46.9927906 292.461769,46.9927906 C291.0842,46.9927906 290.027718,46.3807099 289.385543,45.2115671 C288.902185,44.3415872 288.7192,43.1277418 288.7192,40.9579503 C288.7192,39.1010763 288.995404,37.7806326 289.613412,36.8625116 C290.189988,36.0166024 291.24647,35.4939267 292.323667,35.4939267 C293.217879,35.4939267 294.07066,35.7896511 294.871653,36.3810998 L296.318273,34.2113082 C295.448229,33.4582427 293.863507,32.9527603 292.278784,32.9527603 C289.706631,32.9527603 287.410682,34.3247839 286.174667,36.6355603 C285.439273,38.0041452 285.094018,39.5824881 285.094018,41.5734696 C285.094018,43.9083166 285.736193,45.830525 287.020543,47.267883 C288.329061,48.7533822 290.027718,49.4617452 292.233901,49.4617452 C294.046492,49.4617452 295.399893,49.004404 296.663528,47.9796847 L296.663528,47.9796847 Z M310.049083,49.1866528 L310.049083,33.2966259 L306.789872,33.2966259 L306.789872,39.4724511 L302.197974,39.4724511 L302.197974,33.2966259 L299.007813,33.2966259 L299.007813,49.1866528 L302.197974,49.1866528 L302.197974,42.1030225 L306.789872,42.1030225 L306.789872,49.1866528 L310.049083,49.1866528 Z M325.661536,49.1866528 L320.634616,33.2519234 L317.164799,33.2519234 L311.930726,49.1866528 L315.283156,49.1866528 L316.408689,45.4144477 L321.093806,45.4144477 L322.215886,49.1866528 L325.661536,49.1866528 Z M320.310076,42.7632444 L317.188966,42.7632444 C317.534222,41.7110158 317.741375,40.9613889 318.038295,39.8163166 C318.314499,38.7606494 318.704638,37.1169721 318.797857,36.749036 L319.440032,39.5618561 C319.692069,40.6622259 320.196142,42.4193788 320.310076,42.7632444 L320.310076,42.7632444 Z M336.198733,33.2966259 L327.546631,33.2966259 L327.546631,49.1866528 L330.757507,49.1866528 L330.757507,42.1202158 L334.821164,42.1202158 L334.821164,39.5205923 L330.757507,39.5205923 L330.757507,35.8790561 L335.829309,35.8790561 L336.198733,33.2966259 Z M349.239032,33.2966259 L337.738572,33.2966259 L337.738572,35.9478292 L341.639959,35.9478292 L341.639959,49.1866528 L344.899171,49.1866528 L344.899171,35.9478292 L348.710791,35.9478292 L349.239032,33.2966259 Z M367.351134,43.9977217 L367.351134,33.2966259 L364.095375,33.2966259 L364.095375,43.4716074 C364.095375,44.3175166 364.095375,44.5479066 364.050492,44.8917721 C363.91239,46.0574763 363.014726,46.7417687 361.612988,46.7417687 C360.556507,46.7417687 359.800397,46.3532007 359.430974,45.6448376 C359.247988,45.3009721 359.154769,44.7301553 359.154769,43.7466998 L359.154769,33.2966259 L355.874842,33.2966259 L355.874842,44.3690965 C355.874842,45.8958595 356.037112,46.5388881 356.561901,47.3607267 C357.456112,48.7533822 359.247988,49.4858158 361.682039,49.4858158 C365.127689,49.4858158 366.688244,47.7492948 367.099098,46.4907469 C367.326966,45.8098931 367.351134,45.5072914 367.351134,43.9977217 L367.351134,43.9977217 Z M381.610185,49.1866528 L381.610185,33.2966259 L378.56158,33.2966259 L378.627178,39.7922461 C378.651346,40.8857385 378.76528,42.9214225 378.879215,44.1558998 C378.56158,43.0142662 377.936667,41.3430797 377.135674,39.6581385 L374.076711,33.2966259 L370.524032,33.2966259 L370.524032,49.1866528 L373.617521,49.1866528 L373.527755,42.3953082 C373.503587,41.0679872 373.482872,39.1973587 373.365485,37.8941082 C373.665857,38.8775637 374.632572,41.1161284 375.526784,43.1071099 L378.261207,49.1866528 L381.610185,49.1866528 Z M396.946434,41.2983771 C396.946434,38.4408545 396.235207,36.4051704 394.767872,34.9643738 C393.801156,34.0049889 392.63074,33.5063839 391.277339,33.3894696 C390.635164,33.3447671 389.416412,33.2966259 388.498032,33.2966259 L385.283704,33.2966259 L385.283704,49.1866528 L389.160923,49.1866528 C390.106923,49.1866528 390.863032,49.1419503 391.460324,49.0972477 C392.951828,48.9837721 394.377733,48.1172309 395.340996,46.8139805 C396.418193,45.3731839 396.946434,43.4716074 396.946434,41.2983771 L396.946434,41.2983771 Z M393.341966,41.5941015 C393.341966,44.9639839 392.378704,46.5835906 390.269193,46.5835906 L388.542915,46.5835906 L388.542915,35.810283 L390.013704,35.810283 C391.277339,35.810283 392.012733,36.2676242 392.540974,37.137604 C393.183149,38.1863939 393.341966,39.7441049 393.341966,41.5941015 L393.341966,41.5941015 Z M417.354485,49.1866528 L411.681937,40.6622259 L416.781361,33.2966259 L412.831638,33.2966259 L408.284623,40.5418729 L408.284623,33.2966259 L405.008149,33.2966259 L405.008149,49.1866528 L408.284623,49.1866528 L408.284623,40.8857385 L413.128558,49.1866528 L417.354485,49.1866528 Z M430.394784,43.9977217 L430.394784,33.2966259 L427.139025,33.2966259 L427.139025,43.4716074 C427.139025,44.3175166 427.139025,44.5479066 427.094142,44.8917721 C426.956039,46.0574763 426.058375,46.7417687 424.656638,46.7417687 C423.600156,46.7417687 422.840594,46.3532007 422.474623,45.6448376 C422.291638,45.3009721 422.198419,44.7301553 422.198419,43.7466998 L422.198419,33.2966259 L418.921945,33.2966259 L418.921945,44.3690965 C418.921945,45.8958595 419.080762,46.5388881 419.60555,47.3607267 C420.503215,48.7533822 422.291638,49.4858158 424.725689,49.4858158 C428.171339,49.4858158 429.731893,47.7492948 430.142747,46.4907469 C430.374069,45.8098931 430.394784,45.5072914 430.394784,43.9977217 L430.394784,43.9977217 Z M445.113025,49.1866528 L445.113025,33.2966259 L442.060966,33.2966259 L442.130018,39.7922461 C442.154185,40.8857385 442.26812,42.9214225 442.382054,44.1558998 C442.060966,43.0142662 441.442959,41.3430797 440.638514,39.6581385 L437.583003,33.2966259 L434.026872,33.2966259 L434.026872,49.1866528 L437.123813,49.1866528 L437.030594,42.3953082 C437.006426,41.0679872 436.985711,39.1973587 436.868324,37.8941082 C437.168696,38.8775637 438.131959,41.1161284 439.029623,43.1071099 L441.764047,49.1866528 L445.113025,49.1866528 Z M459.896864,44.1799704 C459.896864,41.8244914 458.477864,40.1533049 455.860828,39.4449418 L453.93085,38.9188276 C452.598164,38.5543301 452.159689,38.1416914 452.159689,37.3198528 C452.159689,36.2435536 453.078069,35.4939267 454.390039,35.4939267 C455.584623,35.4939267 456.66182,35.830915 458.108441,36.7008948 L459.624112,34.4141889 C458.225828,33.4101015 456.250966,32.8152141 454.300273,32.8152141 C450.923674,32.8152141 448.582842,34.8268276 448.582842,37.7290528 C448.582842,38.6231032 448.810711,39.4449418 449.249185,40.1533049 C449.825762,41.1161284 450.80974,41.7316477 452.39101,42.168357 L454.162171,42.6532074 C455.584623,43.0383368 456.250966,43.6813654 456.250966,44.7060847 C456.250966,46.1262494 455.284251,46.879315 453.447492,46.879315 C451.838601,46.879315 450.557704,46.3807099 449.062747,45.6001351 L447.871616,48.0931603 C449.477054,49.004404 451.496799,49.533957 453.30939,49.533957 C457.28328,49.533957 459.896864,47.4088679 459.896864,44.1799704 L459.896864,44.1799704 Z M472.550477,33.2966259 L461.050018,33.2966259 L461.050018,35.9478292 L464.951404,35.9478292 L464.951404,49.1866528 L468.210616,49.1866528 L468.210616,35.9478292 L472.022236,35.9478292 L472.550477,33.2966259 Z"></path>
		</g>
	  </g>
  </g>
</svg>