<svg width="24" height="24" viewBox="0 0 24 24" fill="none" xmlns="http://www.w3.org/2000/svg">
<path d="M0 18.0225V1.26158C0 0.981227 0.13 0.700876 0.39 0.420526C0.65 0.140175 0.92 0 1.2 0H16.77C17.07 0 17.35 0.135169 17.61 0.405507C17.87 0.675845 18 0.961201 18 1.26158V11.9549C18 12.2353 17.87 12.5156 17.61 12.796C17.35 13.0763 17.07 13.2165 16.77 13.2165H4.8L0 18.0225ZM6.03 19.224C5.75 19.224 5.475 19.0839 5.205 18.8035C4.935 18.5232 4.8 18.2428 4.8 17.9625V15.0188H19.8V4.80601H22.8C23.08 4.80601 23.35 4.94618 23.61 5.22653C23.87 5.50688 24 5.79725 24 6.09762V24L19.23 19.224H6.03ZM16.2 1.80225H1.8V13.6671L4.05 11.4143H16.2V1.80225Z" fill="#575756"/>
</svg>
