<?xml version="1.0" encoding="utf-8"?>
<!-- Generator: Adobe Illustrator 24.1.2, SVG Export Plug-In . SVG Version: 6.00 Build 0)  -->
<svg version="1.1" id="Ebene_1" xmlns="http://www.w3.org/2000/svg" xmlns:xlink="http://www.w3.org/1999/xlink" x="0px" y="0px"
	 viewBox="0 0 138.188995 63.779526" style="enable-background:new 0 0 138.188995 63.779526;" xml:space="preserve">
<style type="text/css">
	.st0{fill:#FC5555;}
</style>
<g>
	
		<rect x="108.525444" y="12.856152" transform="matrix(0.948683 -0.316228 0.316228 0.948683 -0.722535 38.067223)" class="st0" width="16.807381" height="16.807381"/>
	<polygon class="st0" points="40.94191,29.388807 15.75087,29.388807 15.75087,10.629921 10.629898,10.629921 10.629898,53.149605 
		15.75087,53.149605 15.75087,33.676739 40.94191,33.676739 40.94191,53.149605 46.062881,53.149605 46.062881,10.629921 
		40.94191,10.629921 	"/>
	<polygon class="st0" points="74.616943,46.479675 74.499931,46.479675 61.069721,10.629921 53.149605,10.629921 
		53.149605,53.149605 58.032684,53.149605 58.032684,15.870908 58.151703,15.870908 72.295921,53.149605 76.462982,53.149605 
		90.608231,15.870908 90.727257,15.870908 90.727257,53.149605 95.669289,53.149605 95.669289,10.629921 88.047218,10.629921 	"/>
</g>
</svg>
