<?xml version="1.0" encoding="UTF-8"?><svg id="Ebene_2" xmlns="http://www.w3.org/2000/svg" viewBox="0 0 75.68 34"><defs><style>.cls-1{fill:#3d3d3d;}.cls-2{fill:#575757;}.cls-3{fill:#3f3f3f;}.cls-4{fill:#3e3e3e;}.cls-5{fill:#444;}.cls-6{fill:#505050;}.cls-7{fill:#515151;}.cls-8{fill:#434343;}.cls-9{fill:#fefefe;}</style></defs><g id="Ebene_1-2"><g><path class="cls-2" d="M0,33.9C0,22.72,0,11.54,0,.37,0,.07,.07,0,.37,0,25.44,0,50.51,0,75.58,0c.07,.12,.04,.26,.04,.39,0,11.04,0,22.08,0,33.12,0,.46,.05,.42-.43,.42-24.93,0-49.86,0-74.79,0-.13,0-.27,.04-.39-.04Z"/><path class="cls-9" d="M0,33.9c24.94,0,49.89,0,74.83,0,.15,0,.29,0,.44,0,.22,.02,.33-.06,.3-.29-.01-.13,0-.27,0-.4,0-11.07,0-22.14,0-33.2,.17,.07,.07,.22,.08,.32,0,4.01,0,8.03,0,12.04,0,7.1,0,14.2,0,21.29,0,.27-.05,.33-.33,.33-25,0-50.01,0-75.01-.01-.1,0-.25,.09-.32-.07Z"/><path class="cls-9" d="M36.11,5.91c.27,.84,.39,1.71,.56,2.56,.97,4.82,1.94,9.64,2.91,14.45,.03,.14,.01,.29,.14,.43,.11-.1,.11-.24,.14-.36,1.31-5.52,2.62-11.04,3.94-16.55,.04-.18,.11-.35,.16-.53,.13-.09,.28-.04,.43-.04,.99,0,1.97,0,2.96,0,.12,0,.27-.08,.36,.07,1.33,5.58,2.66,11.16,3.98,16.75,.04,.17,.11,.32,.29,.47,.09-.44,.18-.85,.26-1.26,1.05-5.22,2.09-10.44,3.14-15.67,.02-.1,.05-.21,.07-.31,.05-.09,.14-.06,.22-.06,1.1,0,2.21,0,3.31,0,.08,0,.16-.02,.22,.06-.41,1.72-.82,3.44-1.24,5.15-1.35,5.55-2.71,11.1-4.07,16.64-.02,.08-.03,.16-.04,.23-.03,.11-.12,.08-.2,.08-1.14,0-2.27,0-3.41,0-.06,0-.1-.01-.15-.05-.32-.93-.49-1.9-.72-2.85-1.16-4.84-2.31-9.69-3.46-14.53-.02-.1-.05-.2-.16-.31-1.41,5.89-2.81,11.78-4.22,17.68-.05,.09-.14,.06-.21,.06-1.11,0-2.23,0-3.34,0-.07,0-.13,0-.18-.05-.36-1.14-.6-2.31-.88-3.47-1.48-6.03-2.95-12.05-4.42-18.08-.03-.14-.03-.29-.14-.41,.03-.12,.11-.16,.24-.16,1.15,0,2.3,0,3.45,0,.02,0,.04,.03,.07,.04Z"/><path class="cls-9" d="M22.06,27.98c.88-3.11,1.75-6.21,2.63-9.32,1.2-4.24,2.4-8.48,3.6-12.73,.05-.09,.14-.06,.21-.06,1.1,0,2.21,0,3.31,0,.08,0,.16-.02,.22,.05-.36,1.3-.71,2.61-1.08,3.91-.56,1.99-1.13,3.99-1.69,5.98-.04,.13-.06,.26-.09,.39-.04,.29,.09,.37,.38,.36,.94-.02,1.88-.01,2.83,0,.12,0,.26-.06,.37,.06,.23,.94,.46,1.88,.7,2.82,.07,.26,.01,.35-.27,.35-1.54-.01-3.08,0-4.62-.01-.33,0-.45,.11-.54,.41-.68,2.44-1.37,4.88-2.06,7.31-.05,.17-.1,.33-.15,.49-.04,.04-.09,.06-.14,.06-1.16,0-2.32,0-3.47,0-.06,0-.1-.01-.13-.06Z"/><path class="cls-9" d="M69.67,5.91c.05,.17-.09,.27-.16,.39-2.1,3.32-4.2,6.65-6.32,9.96-.17,.27-.18,.46,0,.74,2.15,3.5,4.29,7,6.42,10.5,.09,.15,.25,.28,.22,.49-.19,.09-.39,.04-.58,.04-1,0-2.01,0-3.01,0-.13,0-.26,.04-.38-.04-.97-1.57-1.94-3.14-2.91-4.72-1.3-2.12-2.59-4.24-3.89-6.36-.11-.18-.16-.32-.02-.53,2.18-3.42,4.35-6.85,6.52-10.27,.04-.07,.09-.13,.14-.19,.11-.09,.23-.04,.34-.04,1.1,0,2.2,0,3.29,0,.12,0,.24-.04,.35,.04Z"/><path class="cls-7" d="M9.43,5.91c.19,.2,.16,.44,.16,.68,0,2.43,0,4.86,0,7.29,0,.69,.03,.72,.72,.72,2.18,0,4.37,0,6.55,0,.59,0,.64-.05,.64-.64,0-2.44,0-4.89,0-7.33,0-.25-.02-.51,.14-.73,.02,.01,.05,.03,.07,.04,.08,.19,.07,.39,.07,.59,0,2.56,0,5.13,0,7.69,0,.08,0,.16,0,.24-.02,.41-.09,.48-.52,.49-.72,.02-1.44,0-2.16,0-1.74,0-3.49,0-5.23,0-.58,0-.64-.05-.64-.63,0-2.6,0-5.21,0-7.81,0-.17-.02-.35,.08-.5,.03-.05,.07-.08,.12-.1Z"/><path class="cls-6" d="M17.6,27.99c-.13-.22-.1-.46-.1-.7,0-2.85,0-5.71,0-8.56,0-.66-.03-.69-.7-.69-2.18,0-4.36,0-6.54,0-.62,0-.66,.04-.66,.65,0,2.88,0,5.76,0,8.64,0,.23,.06,.49-.19,.65-.02-.02-.04-.03-.06-.05-.12-.16-.11-.35-.11-.54,0-3.02,0-6.05,0-9.07,0-.17-.01-.35,.08-.51,.1-.14,.25-.14,.4-.13,.54,0,1.09-.05,1.62,.13,.09,.03,.18,.02,.28,.02,1.31,0,2.63,.03,3.94-.01,.55-.02,1.1-.18,1.66-.13,.17,.01,.35-.02,.49,.11,.12,.18,.09,.38,.09,.58,0,3,0,5.99,0,8.99,0,.2,.02,.4-.11,.57-.02,.02-.04,.03-.06,.05Z"/><path class="cls-3" d="M6,28.07c-.15-.16-.16-.36-.16-.56,0-7.04,0-14.08,0-21.12,0-.2,0-.4,.16-.56,.04,.04,.07,.08,.09,.13,.04,.18,.03,.37,.03,.56,0,6.96,0,13.92,0,20.87,0,.19,.02,.37-.03,.56-.02,.05-.05,.09-.09,.13Z"/><path class="cls-5" d="M21.02,5.83c.15,.16,.16,.36,.16,.56,0,7.04,0,14.08,0,21.13,0,.2,0,.4-.16,.56-.04-.04-.07-.08-.09-.13-.04-.18-.03-.37-.03-.56,0-6.96,0-13.92,0-20.88,0-.19-.02-.37,.03-.56,.02-.05,.05-.09,.09-.13Z"/><path class="cls-8" d="M32.76,16.62c-1.1,0-2.2-.01-3.29,0-.37,0-.46-.1-.28-.42,.1,.27,.32,.32,.58,.32,.81,0,1.61,0,2.42,0,.2,0,.4,0,.58,.1Z"/><path class="cls-4" d="M69.67,5.91c-1.33,0-2.66,0-3.99,0,.09-.1,.22-.09,.34-.09,1.07,0,2.15,0,3.22,0,.14,0,.28,.05,.43,.08Z"/><path class="cls-1" d="M65.84,27.99c1.33,0,2.66,0,3.98,0-.15,.07-.31,.08-.47,.08-1.05,0-2.09,0-3.14,0-.13,0-.27,.02-.38-.09Z"/><path class="cls-4" d="M36.11,5.91c-1.1,0-2.2,0-3.31,.02-.15,0-.32-.05-.44,.1,.12-.13,.27-.2,.46-.2,1,0,2,0,2.99,0,.11,0,.21,0,.3,.08Z"/><path class="cls-4" d="M47.7,5.95c-1.25,0-2.49-.02-3.74-.03,.11-.11,.25-.09,.38-.09,.96,0,1.91,0,2.87,0,.18,0,.34,.02,.5,.12Z"/><path class="cls-4" d="M37.81,27.99c1.25,0,2.49-.01,3.74-.02-.13,.07-.27,.1-.42,.1-1.01,0-2.02,0-3.02,0-.11,0-.21,0-.3-.09Z"/><path class="cls-4" d="M50.11,27.99c1.1,0,2.21,0,3.31-.01,.15,0,.29-.02,.44-.02-.14,.08-.29,.12-.46,.12-1,0-2,0-2.99,0-.11,0-.21,0-.3-.08Z"/><path class="cls-4" d="M32.04,5.92c-1.25,0-2.5,0-3.75,.01,.02-.01,.05-.03,.07-.03,1.23-.11,2.45-.14,3.68,.02Z"/><path class="cls-4" d="M59.2,5.93c-1.25,0-2.5,0-3.75,0,.01,0,.02-.01,.04-.02,1.24-.13,2.48-.16,3.71,.01Z"/><path class="cls-1" d="M22.06,27.98c1.25,0,2.5,0,3.75,0-.15,.07-.3,.09-.46,.09-.94,0-1.88,0-2.82,0-.16,0-.32-.02-.46-.1Z"/><path class="cls-4" d="M6,5.91s0-.05,0-.08c.98,0,1.95,0,2.93,0,.17,0,.34,0,.5,.08,0,.03,0,.06,0,.09-.15,.1-.32,.1-.5,.1-.81,0-1.61,0-2.42,0-.19,0-.41,.04-.52-.19Z"/><path class="cls-4" d="M21.02,5.83s0,.05,0,.08c-.09,.19-.27,.19-.44,.19-.82,0-1.64,0-2.46,0-.17,0-.35,0-.44-.19,0,0-.03-.01-.03-.01,.25-.12,.52-.07,.79-.07,.86,0,1.72,0,2.59,0Z"/><path class="cls-4" d="M6,28.07s0-.05,0-.08c.09-.2,.27-.19,.44-.19,.84-.01,1.67,0,2.51,0,.17,0,.34,.02,.46,.17,0,0,0,0,0,0-.14,.09-.3,.1-.46,.1-.98,0-1.96,0-2.95,0Z"/><path class="cls-4" d="M21.02,28s0,.05,0,.08c-.97,0-1.94,0-2.91,0-.17,0-.35,0-.5-.09,0,0,0,0,0,0,.13-.16,.31-.18,.5-.18,.81,0,1.62,0,2.43,0,.18,0,.38-.02,.49,.19Z"/><path class="cls-9" d="M21.02,28c-1.14,0-2.28,0-3.42-.01,0-3.28,0-6.56,0-9.84,0-.07-.02-.13-.03-.2-.08-.06-.18-.04-.27-.04-2.53,0-5.06,0-7.59,0-.09,0-.19-.02-.27,.04,0,.17-.02,.34-.03,.51,0,3.17,0,6.34,0,9.51-1.14,0-2.28,.01-3.41,.02-.09-.15-.06-.31-.06-.47,0-7.05,0-14.1,0-21.15,0-.16-.03-.32,.06-.47,.99,0,1.98,.01,2.97,.02,.16,0,.32-.03,.46,.07,0,2.79,0,5.58-.01,8.37,0,.31,.11,.37,.39,.37,2.46,0,4.93-.01,7.39,0,.35,0,.41-.13,.41-.44-.01-2.63,0-5.26,0-7.89,0-.17-.04-.35,.07-.5,1.12,0,2.23,0,3.35,0,.1,.14,.06,.31,.06,.46,0,7.05,0,14.1,0,21.16,0,.16,.04,.32-.06,.46Z"/><path class="cls-2" d="M9.45,17.95c.11-.07,.23-.05,.35-.05,2.48,0,4.95,0,7.43,0,.12,0,.24-.02,.35,.05-2.71,0-5.42,0-8.13,0Z"/></g></g></svg>